<mxfile host="app.diagrams.net" modified="2021-09-22T22:04:49.930Z" agent="5.0 (Windows NT 10.0; Win64; x64) AppleWebKit/537.36 (KHTML, like Gecko) Chrome/77.0.3865.75 Safari/537.36" etag="IWsw92hTMp5Ow7UiDJkh" version="15.3.0" type="github">
  <diagram id="pS8KY29G24BmzdlDwVjM" name="Credito Hipotecario">
    <mxGraphModel dx="1865" dy="1715" grid="1" gridSize="10" guides="1" tooltips="1" connect="1" arrows="1" fold="1" page="1" pageScale="1" pageWidth="827" pageHeight="1169" math="0" shadow="0">
      <root>
        <mxCell id="le1W6F8i_ccFlPAa-Frw-0" />
        <mxCell id="le1W6F8i_ccFlPAa-Frw-1" parent="le1W6F8i_ccFlPAa-Frw-0" />
        <mxCell id="le1W6F8i_ccFlPAa-Frw-2" value="&lt;b&gt;1 IDENTIFICA TU CLIENTE&lt;/b&gt;" style="rounded=1;whiteSpace=wrap;html=1;fillColor=#dae8fc;strokeColor=#6c8ebf;" parent="le1W6F8i_ccFlPAa-Frw-1" vertex="1">
          <mxGeometry x="80" y="130" width="120" height="100" as="geometry" />
        </mxCell>
        <mxCell id="le1W6F8i_ccFlPAa-Frw-3" value="Actor" style="shape=umlActor;verticalLabelPosition=bottom;verticalAlign=top;html=1;outlineConnect=0;" parent="le1W6F8i_ccFlPAa-Frw-1" vertex="1">
          <mxGeometry x="-70" y="150" width="30" height="60" as="geometry" />
        </mxCell>
        <mxCell id="le1W6F8i_ccFlPAa-Frw-4" value="" style="endArrow=classic;html=1;" parent="le1W6F8i_ccFlPAa-Frw-1" source="le1W6F8i_ccFlPAa-Frw-3" target="le1W6F8i_ccFlPAa-Frw-2" edge="1">
          <mxGeometry width="50" height="50" relative="1" as="geometry">
            <mxPoint x="120" y="330" as="sourcePoint" />
            <mxPoint x="170" y="280" as="targetPoint" />
          </mxGeometry>
        </mxCell>
        <mxCell id="le1W6F8i_ccFlPAa-Frw-7" value="" style="endArrow=classic;html=1;exitX=1;exitY=0.5;exitDx=0;exitDy=0;entryX=0;entryY=0.5;entryDx=0;entryDy=0;" parent="le1W6F8i_ccFlPAa-Frw-1" source="le1W6F8i_ccFlPAa-Frw-2" target="le1W6F8i_ccFlPAa-Frw-43" edge="1">
          <mxGeometry width="50" height="50" relative="1" as="geometry">
            <mxPoint x="390" y="210" as="sourcePoint" />
            <mxPoint x="300" y="200" as="targetPoint" />
          </mxGeometry>
        </mxCell>
        <mxCell id="le1W6F8i_ccFlPAa-Frw-61" style="edgeStyle=orthogonalEdgeStyle;rounded=0;orthogonalLoop=1;jettySize=auto;html=1;entryX=1;entryY=0.5;entryDx=0;entryDy=0;" parent="le1W6F8i_ccFlPAa-Frw-1" source="le1W6F8i_ccFlPAa-Frw-17" target="le1W6F8i_ccFlPAa-Frw-59" edge="1">
          <mxGeometry relative="1" as="geometry">
            <Array as="points">
              <mxPoint x="545" y="340" />
            </Array>
          </mxGeometry>
        </mxCell>
        <mxCell id="le1W6F8i_ccFlPAa-Frw-62" style="edgeStyle=orthogonalEdgeStyle;rounded=0;orthogonalLoop=1;jettySize=auto;html=1;entryX=0;entryY=0.5;entryDx=0;entryDy=0;" parent="le1W6F8i_ccFlPAa-Frw-1" source="le1W6F8i_ccFlPAa-Frw-17" target="le1W6F8i_ccFlPAa-Frw-31" edge="1">
          <mxGeometry relative="1" as="geometry">
            <Array as="points">
              <mxPoint x="545" y="120" />
            </Array>
          </mxGeometry>
        </mxCell>
        <mxCell id="le1W6F8i_ccFlPAa-Frw-17" value="Centrales de Riesgo" style="rhombus;whiteSpace=wrap;html=1;fillColor=#d5e8d4;strokeColor=#82b366;" parent="le1W6F8i_ccFlPAa-Frw-1" vertex="1">
          <mxGeometry x="470" y="180" width="150" height="120" as="geometry" />
        </mxCell>
        <mxCell id="le1W6F8i_ccFlPAa-Frw-18" value="" style="endArrow=classic;html=1;entryX=0;entryY=0.5;entryDx=0;entryDy=0;exitX=1;exitY=0.5;exitDx=0;exitDy=0;" parent="le1W6F8i_ccFlPAa-Frw-1" source="le1W6F8i_ccFlPAa-Frw-44" target="le1W6F8i_ccFlPAa-Frw-17" edge="1">
          <mxGeometry width="50" height="50" relative="1" as="geometry">
            <mxPoint x="440" y="230" as="sourcePoint" />
            <mxPoint x="530" y="280" as="targetPoint" />
          </mxGeometry>
        </mxCell>
        <mxCell id="le1W6F8i_ccFlPAa-Frw-22" value="SI" style="text;html=1;strokeColor=none;fillColor=none;align=center;verticalAlign=middle;whiteSpace=wrap;rounded=0;" parent="le1W6F8i_ccFlPAa-Frw-1" vertex="1">
          <mxGeometry x="560" y="100" width="40" height="20" as="geometry" />
        </mxCell>
        <mxCell id="le1W6F8i_ccFlPAa-Frw-23" value="NO" style="text;html=1;strokeColor=none;fillColor=none;align=center;verticalAlign=middle;whiteSpace=wrap;rounded=0;" parent="le1W6F8i_ccFlPAa-Frw-1" vertex="1">
          <mxGeometry x="480" y="310" width="40" height="20" as="geometry" />
        </mxCell>
        <mxCell id="le1W6F8i_ccFlPAa-Frw-49" style="edgeStyle=orthogonalEdgeStyle;rounded=0;orthogonalLoop=1;jettySize=auto;html=1;entryX=0;entryY=0.5;entryDx=0;entryDy=0;" parent="le1W6F8i_ccFlPAa-Frw-1" source="le1W6F8i_ccFlPAa-Frw-25" target="le1W6F8i_ccFlPAa-Frw-33" edge="1">
          <mxGeometry relative="1" as="geometry" />
        </mxCell>
        <mxCell id="le1W6F8i_ccFlPAa-Frw-25" value="Cliente Actualizado" style="rounded=0;whiteSpace=wrap;html=1;fillColor=#f8cecc;strokeColor=#b85450;" parent="le1W6F8i_ccFlPAa-Frw-1" vertex="1">
          <mxGeometry x="920" y="-10" width="120" height="60" as="geometry" />
        </mxCell>
        <mxCell id="le1W6F8i_ccFlPAa-Frw-79" style="edgeStyle=orthogonalEdgeStyle;rounded=0;orthogonalLoop=1;jettySize=auto;html=1;" parent="le1W6F8i_ccFlPAa-Frw-1" source="le1W6F8i_ccFlPAa-Frw-26" edge="1">
          <mxGeometry relative="1" as="geometry">
            <mxPoint x="1100" y="120" as="targetPoint" />
          </mxGeometry>
        </mxCell>
        <mxCell id="le1W6F8i_ccFlPAa-Frw-26" value="Cliente Desactualizado" style="rounded=0;whiteSpace=wrap;html=1;fillColor=#f8cecc;strokeColor=#b85450;" parent="le1W6F8i_ccFlPAa-Frw-1" vertex="1">
          <mxGeometry x="920" y="90" width="120" height="60" as="geometry" />
        </mxCell>
        <mxCell id="le1W6F8i_ccFlPAa-Frw-53" style="edgeStyle=orthogonalEdgeStyle;rounded=0;orthogonalLoop=1;jettySize=auto;html=1;entryX=0;entryY=0.5;entryDx=0;entryDy=0;" parent="le1W6F8i_ccFlPAa-Frw-1" source="le1W6F8i_ccFlPAa-Frw-27" target="le1W6F8i_ccFlPAa-Frw-51" edge="1">
          <mxGeometry relative="1" as="geometry" />
        </mxCell>
        <mxCell id="le1W6F8i_ccFlPAa-Frw-27" value="Cliente No Existe (Nuevo)" style="rounded=0;whiteSpace=wrap;html=1;fillColor=#f8cecc;strokeColor=#b85450;" parent="le1W6F8i_ccFlPAa-Frw-1" vertex="1">
          <mxGeometry x="920" y="210" width="120" height="60" as="geometry" />
        </mxCell>
        <mxCell id="le1W6F8i_ccFlPAa-Frw-28" value="" style="endArrow=classic;html=1;entryX=0;entryY=0.5;entryDx=0;entryDy=0;exitX=0.5;exitY=0;exitDx=0;exitDy=0;" parent="le1W6F8i_ccFlPAa-Frw-1" source="le1W6F8i_ccFlPAa-Frw-31" target="le1W6F8i_ccFlPAa-Frw-25" edge="1">
          <mxGeometry width="50" height="50" relative="1" as="geometry">
            <mxPoint x="840" y="60" as="sourcePoint" />
            <mxPoint x="710" y="100" as="targetPoint" />
            <Array as="points">
              <mxPoint x="760" y="20" />
            </Array>
          </mxGeometry>
        </mxCell>
        <mxCell id="le1W6F8i_ccFlPAa-Frw-29" value="" style="endArrow=classic;html=1;entryX=0;entryY=0.5;entryDx=0;entryDy=0;exitX=1;exitY=0.5;exitDx=0;exitDy=0;" parent="le1W6F8i_ccFlPAa-Frw-1" source="le1W6F8i_ccFlPAa-Frw-31" target="le1W6F8i_ccFlPAa-Frw-26" edge="1">
          <mxGeometry width="50" height="50" relative="1" as="geometry">
            <mxPoint x="830" y="150" as="sourcePoint" />
            <mxPoint x="740" y="130" as="targetPoint" />
          </mxGeometry>
        </mxCell>
        <mxCell id="le1W6F8i_ccFlPAa-Frw-75" style="edgeStyle=orthogonalEdgeStyle;rounded=0;orthogonalLoop=1;jettySize=auto;html=1;entryX=0;entryY=0.5;entryDx=0;entryDy=0;" parent="le1W6F8i_ccFlPAa-Frw-1" source="le1W6F8i_ccFlPAa-Frw-31" target="le1W6F8i_ccFlPAa-Frw-27" edge="1">
          <mxGeometry relative="1" as="geometry">
            <Array as="points">
              <mxPoint x="760" y="240" />
            </Array>
          </mxGeometry>
        </mxCell>
        <mxCell id="le1W6F8i_ccFlPAa-Frw-31" value="Servicio Tipo De Cliente" style="rounded=0;whiteSpace=wrap;html=1;fillColor=#f8cecc;strokeColor=#b85450;" parent="le1W6F8i_ccFlPAa-Frw-1" vertex="1">
          <mxGeometry x="700" y="90" width="120" height="60" as="geometry" />
        </mxCell>
        <mxCell id="le1W6F8i_ccFlPAa-Frw-33" value="Pop Up 1" style="swimlane;fillColor=#d5e8d4;strokeColor=#82b366;" parent="le1W6F8i_ccFlPAa-Frw-1" vertex="1">
          <mxGeometry x="1080" y="-110" width="175" height="130" as="geometry" />
        </mxCell>
        <mxCell id="le1W6F8i_ccFlPAa-Frw-34" value="Cliente Actualizado Av Villas" style="text;html=1;align=center;verticalAlign=middle;resizable=0;points=[];autosize=1;strokeColor=none;fillColor=none;" parent="le1W6F8i_ccFlPAa-Frw-33" vertex="1">
          <mxGeometry x="5" y="50" width="170" height="20" as="geometry" />
        </mxCell>
        <mxCell id="le1W6F8i_ccFlPAa-Frw-37" value="Actualizar info SI/NO" style="ellipse;whiteSpace=wrap;html=1;fillColor=#d5e8d4;strokeColor=#82b366;" parent="le1W6F8i_ccFlPAa-Frw-33" vertex="1">
          <mxGeometry x="40.5" y="80" width="89" height="40" as="geometry" />
        </mxCell>
        <mxCell id="le1W6F8i_ccFlPAa-Frw-57" style="edgeStyle=orthogonalEdgeStyle;rounded=0;orthogonalLoop=1;jettySize=auto;html=1;entryX=1;entryY=0.5;entryDx=0;entryDy=0;" parent="le1W6F8i_ccFlPAa-Frw-1" source="le1W6F8i_ccFlPAa-Frw-36" target="le1W6F8i_ccFlPAa-Frw-54" edge="1">
          <mxGeometry relative="1" as="geometry">
            <mxPoint x="1410" y="380" as="targetPoint" />
            <Array as="points">
              <mxPoint x="1475" y="40" />
              <mxPoint x="1341" y="40" />
              <mxPoint x="1341" y="340" />
            </Array>
          </mxGeometry>
        </mxCell>
        <mxCell id="le1W6F8i_ccFlPAa-Frw-71" style="edgeStyle=orthogonalEdgeStyle;rounded=0;orthogonalLoop=1;jettySize=auto;html=1;entryX=1;entryY=0.5;entryDx=0;entryDy=0;" parent="le1W6F8i_ccFlPAa-Frw-1" source="le1W6F8i_ccFlPAa-Frw-36" target="le1W6F8i_ccFlPAa-Frw-65" edge="1">
          <mxGeometry relative="1" as="geometry">
            <Array as="points">
              <mxPoint x="1600" y="-40" />
              <mxPoint x="1600" y="530" />
            </Array>
          </mxGeometry>
        </mxCell>
        <mxCell id="le1W6F8i_ccFlPAa-Frw-36" value="Desea Actualizar Datos" style="rhombus;whiteSpace=wrap;html=1;fillColor=#d5e8d4;strokeColor=#82b366;" parent="le1W6F8i_ccFlPAa-Frw-1" vertex="1">
          <mxGeometry x="1435" y="-80" width="80" height="80" as="geometry" />
        </mxCell>
        <mxCell id="le1W6F8i_ccFlPAa-Frw-43" value="FORMULARIO 1" style="swimlane;fillColor=#d5e8d4;strokeColor=#82b366;" parent="le1W6F8i_ccFlPAa-Frw-1" vertex="1">
          <mxGeometry x="280" y="80" width="160" height="200" as="geometry" />
        </mxCell>
        <mxCell id="le1W6F8i_ccFlPAa-Frw-44" value="Centrales de Riesgo SI/NO" style="ellipse;whiteSpace=wrap;html=1;fillColor=#d5e8d4;strokeColor=#82b366;" parent="le1W6F8i_ccFlPAa-Frw-43" vertex="1">
          <mxGeometry x="20" y="140" width="110" height="50" as="geometry" />
        </mxCell>
        <mxCell id="le1W6F8i_ccFlPAa-Frw-46" value="Oficina" style="text;html=1;align=center;verticalAlign=middle;resizable=0;points=[];autosize=1;strokeColor=none;fillColor=none;" parent="le1W6F8i_ccFlPAa-Frw-43" vertex="1">
          <mxGeometry y="105" width="50" height="20" as="geometry" />
        </mxCell>
        <mxCell id="le1W6F8i_ccFlPAa-Frw-47" value="Código de Barras" style="text;html=1;align=center;verticalAlign=middle;resizable=0;points=[];autosize=1;strokeColor=none;fillColor=none;" parent="le1W6F8i_ccFlPAa-Frw-43" vertex="1">
          <mxGeometry y="70" width="110" height="20" as="geometry" />
        </mxCell>
        <mxCell id="le1W6F8i_ccFlPAa-Frw-45" value="CC" style="text;html=1;align=center;verticalAlign=middle;resizable=0;points=[];autosize=1;strokeColor=none;fillColor=none;" parent="le1W6F8i_ccFlPAa-Frw-43" vertex="1">
          <mxGeometry x="10" y="40" width="30" height="20" as="geometry" />
        </mxCell>
        <mxCell id="le1W6F8i_ccFlPAa-Frw-48" style="edgeStyle=orthogonalEdgeStyle;rounded=0;orthogonalLoop=1;jettySize=auto;html=1;entryX=0;entryY=0.5;entryDx=0;entryDy=0;" parent="le1W6F8i_ccFlPAa-Frw-1" source="le1W6F8i_ccFlPAa-Frw-37" target="le1W6F8i_ccFlPAa-Frw-36" edge="1">
          <mxGeometry relative="1" as="geometry" />
        </mxCell>
        <mxCell id="le1W6F8i_ccFlPAa-Frw-63" style="edgeStyle=orthogonalEdgeStyle;rounded=0;orthogonalLoop=1;jettySize=auto;html=1;entryX=0.5;entryY=0;entryDx=0;entryDy=0;" parent="le1W6F8i_ccFlPAa-Frw-1" source="le1W6F8i_ccFlPAa-Frw-51" target="le1W6F8i_ccFlPAa-Frw-54" edge="1">
          <mxGeometry relative="1" as="geometry" />
        </mxCell>
        <mxCell id="le1W6F8i_ccFlPAa-Frw-51" value="FORMULARIO 1.1" style="swimlane;fillColor=#d5e8d4;strokeColor=#82b366;" parent="le1W6F8i_ccFlPAa-Frw-1" vertex="1">
          <mxGeometry x="1100" y="210" width="190" height="60" as="geometry" />
        </mxCell>
        <mxCell id="le1W6F8i_ccFlPAa-Frw-52" value="DATOS CEDULA CLIENTE" style="text;html=1;align=center;verticalAlign=middle;resizable=0;points=[];autosize=1;strokeColor=none;fillColor=none;" parent="le1W6F8i_ccFlPAa-Frw-51" vertex="1">
          <mxGeometry x="20" y="35" width="160" height="20" as="geometry" />
        </mxCell>
        <mxCell id="le1W6F8i_ccFlPAa-Frw-54" value="FORMULARIO 1.2" style="swimlane;fillColor=#d5e8d4;strokeColor=#82b366;" parent="le1W6F8i_ccFlPAa-Frw-1" vertex="1">
          <mxGeometry x="1102.5" y="310" width="185" height="60" as="geometry" />
        </mxCell>
        <mxCell id="le1W6F8i_ccFlPAa-Frw-55" value="DATOS CONTACTO CLIENTE" style="text;html=1;align=center;verticalAlign=middle;resizable=0;points=[];autosize=1;strokeColor=none;fillColor=none;" parent="le1W6F8i_ccFlPAa-Frw-54" vertex="1">
          <mxGeometry y="30" width="180" height="20" as="geometry" />
        </mxCell>
        <mxCell id="le1W6F8i_ccFlPAa-Frw-58" value="SI" style="text;html=1;align=center;verticalAlign=middle;resizable=0;points=[];autosize=1;strokeColor=none;fillColor=none;" parent="le1W6F8i_ccFlPAa-Frw-1" vertex="1">
          <mxGeometry x="1405" y="10" width="30" height="20" as="geometry" />
        </mxCell>
        <mxCell id="le1W6F8i_ccFlPAa-Frw-59" value="&lt;b&gt;No habilita botón continuar&lt;br&gt;Formulario 1&lt;/b&gt;" style="rounded=0;whiteSpace=wrap;html=1;fillColor=#f8cecc;strokeColor=#b85450;" parent="le1W6F8i_ccFlPAa-Frw-1" vertex="1">
          <mxGeometry x="310" y="310" width="120" height="60" as="geometry" />
        </mxCell>
        <mxCell id="le1W6F8i_ccFlPAa-Frw-64" value="&lt;b&gt;&amp;nbsp;2 CREA SUS DATOS&lt;/b&gt;" style="rounded=1;whiteSpace=wrap;html=1;fillColor=#dae8fc;strokeColor=#6c8ebf;" parent="le1W6F8i_ccFlPAa-Frw-1" vertex="1">
          <mxGeometry x="60" y="470" width="140" height="80" as="geometry" />
        </mxCell>
        <mxCell id="le1W6F8i_ccFlPAa-Frw-65" value="FORMULARIO 2" style="swimlane;fillColor=#d5e8d4;strokeColor=#82b366;" parent="le1W6F8i_ccFlPAa-Frw-1" vertex="1">
          <mxGeometry x="280" y="430" width="200" height="200" as="geometry" />
        </mxCell>
        <mxCell id="le1W6F8i_ccFlPAa-Frw-66" value="OCUPACIÓN" style="text;html=1;align=center;verticalAlign=middle;resizable=0;points=[];autosize=1;strokeColor=none;fillColor=none;" parent="le1W6F8i_ccFlPAa-Frw-65" vertex="1">
          <mxGeometry x="10" y="50" width="90" height="20" as="geometry" />
        </mxCell>
        <mxCell id="le1W6F8i_ccFlPAa-Frw-70" value="ECONÓMICOS" style="text;html=1;align=center;verticalAlign=middle;resizable=0;points=[];autosize=1;strokeColor=none;fillColor=none;" parent="le1W6F8i_ccFlPAa-Frw-65" vertex="1">
          <mxGeometry x="10" y="144.5" width="100" height="20" as="geometry" />
        </mxCell>
        <mxCell id="le1W6F8i_ccFlPAa-Frw-67" value="BÁSICOS" style="text;html=1;align=center;verticalAlign=middle;resizable=0;points=[];autosize=1;strokeColor=none;fillColor=none;" parent="le1W6F8i_ccFlPAa-Frw-65" vertex="1">
          <mxGeometry x="10" y="100" width="70" height="20" as="geometry" />
        </mxCell>
        <mxCell id="le1W6F8i_ccFlPAa-Frw-72" value="NO" style="text;html=1;align=center;verticalAlign=middle;resizable=0;points=[];autosize=1;strokeColor=none;fillColor=none;" parent="le1W6F8i_ccFlPAa-Frw-1" vertex="1">
          <mxGeometry x="1540" y="-70" width="30" height="20" as="geometry" />
        </mxCell>
        <mxCell id="le1W6F8i_ccFlPAa-Frw-73" value="Pop Up 1" style="swimlane;fillColor=#d5e8d4;strokeColor=#82b366;" parent="le1W6F8i_ccFlPAa-Frw-1" vertex="1">
          <mxGeometry x="1100" y="40" width="180" height="120" as="geometry" />
        </mxCell>
        <mxCell id="le1W6F8i_ccFlPAa-Frw-74" value="Cliente Desactualizado Av Villas" style="text;html=1;align=center;verticalAlign=middle;resizable=0;points=[];autosize=1;strokeColor=none;fillColor=none;" parent="le1W6F8i_ccFlPAa-Frw-73" vertex="1">
          <mxGeometry x="-5" y="40" width="190" height="20" as="geometry" />
        </mxCell>
        <mxCell id="le1W6F8i_ccFlPAa-Frw-76" value="CONTINUAR" style="whiteSpace=wrap;html=1;fillColor=#d5e8d4;strokeColor=#82b366;" parent="le1W6F8i_ccFlPAa-Frw-73" vertex="1">
          <mxGeometry x="45" y="80" width="90" height="30" as="geometry" />
        </mxCell>
        <mxCell id="le1W6F8i_ccFlPAa-Frw-77" style="edgeStyle=orthogonalEdgeStyle;rounded=0;orthogonalLoop=1;jettySize=auto;html=1;entryX=1;entryY=0.25;entryDx=0;entryDy=0;" parent="le1W6F8i_ccFlPAa-Frw-1" source="le1W6F8i_ccFlPAa-Frw-76" target="le1W6F8i_ccFlPAa-Frw-54" edge="1">
          <mxGeometry relative="1" as="geometry">
            <Array as="points">
              <mxPoint x="1308" y="135" />
              <mxPoint x="1308" y="325" />
            </Array>
          </mxGeometry>
        </mxCell>
        <mxCell id="le1W6F8i_ccFlPAa-Frw-82" style="edgeStyle=orthogonalEdgeStyle;rounded=0;orthogonalLoop=1;jettySize=auto;html=1;entryX=0.5;entryY=0;entryDx=0;entryDy=0;exitX=0.5;exitY=1;exitDx=0;exitDy=0;" parent="le1W6F8i_ccFlPAa-Frw-1" source="le1W6F8i_ccFlPAa-Frw-54" target="le1W6F8i_ccFlPAa-Frw-65" edge="1">
          <mxGeometry relative="1" as="geometry">
            <Array as="points">
              <mxPoint x="1193" y="370" />
              <mxPoint x="1193" y="400" />
              <mxPoint x="380" y="400" />
            </Array>
          </mxGeometry>
        </mxCell>
        <mxCell id="le1W6F8i_ccFlPAa-Frw-84" value="&lt;b&gt;1 IDENTIFICA TU CLIENTE&lt;/b&gt;" style="rounded=1;whiteSpace=wrap;html=1;fillColor=#dae8fc;strokeColor=#6c8ebf;" parent="le1W6F8i_ccFlPAa-Frw-1" vertex="1">
          <mxGeometry x="70" y="690" width="120" height="100" as="geometry" />
        </mxCell>
        <mxCell id="le1W6F8i_ccFlPAa-Frw-86" value="TABLA CLIENTES CRÉDITO HIPOTECARIO" style="swimlane;fillColor=#d5e8d4;strokeColor=#82b366;" parent="le1W6F8i_ccFlPAa-Frw-1" vertex="1">
          <mxGeometry x="280" y="680" width="590" height="180" as="geometry" />
        </mxCell>
        <mxCell id="le1W6F8i_ccFlPAa-Frw-91" value="DOCUMENTO" style="text;html=1;align=center;verticalAlign=middle;resizable=0;points=[];autosize=1;strokeColor=none;fillColor=none;" parent="le1W6F8i_ccFlPAa-Frw-86" vertex="1">
          <mxGeometry x="260" y="40" width="90" height="20" as="geometry" />
        </mxCell>
        <mxCell id="le1W6F8i_ccFlPAa-Frw-92" value="TITULAR" style="text;html=1;align=center;verticalAlign=middle;resizable=0;points=[];autosize=1;strokeColor=none;fillColor=none;" parent="le1W6F8i_ccFlPAa-Frw-86" vertex="1">
          <mxGeometry x="450" y="40" width="70" height="20" as="geometry" />
        </mxCell>
        <mxCell id="le1W6F8i_ccFlPAa-Frw-90" value="TIPO DOC" style="text;html=1;align=center;verticalAlign=middle;resizable=0;points=[];autosize=1;strokeColor=none;fillColor=none;" parent="le1W6F8i_ccFlPAa-Frw-86" vertex="1">
          <mxGeometry x="120" y="40" width="70" height="20" as="geometry" />
        </mxCell>
        <mxCell id="le1W6F8i_ccFlPAa-Frw-89" value="ORDEN" style="text;html=1;align=center;verticalAlign=middle;resizable=0;points=[];autosize=1;strokeColor=none;fillColor=none;" parent="le1W6F8i_ccFlPAa-Frw-86" vertex="1">
          <mxGeometry x="10" y="40" width="60" height="20" as="geometry" />
        </mxCell>
        <mxCell id="le1W6F8i_ccFlPAa-Frw-94" value="" style="shape=singleArrow;direction=north;whiteSpace=wrap;html=1;" parent="le1W6F8i_ccFlPAa-Frw-86" vertex="1">
          <mxGeometry x="20" y="70" width="20" height="20" as="geometry" />
        </mxCell>
        <mxCell id="le1W6F8i_ccFlPAa-Frw-97" value="ADICIONAR CLIENTE" style="whiteSpace=wrap;html=1;" parent="le1W6F8i_ccFlPAa-Frw-86" vertex="1">
          <mxGeometry x="80" y="140" width="130" height="20" as="geometry" />
        </mxCell>
        <mxCell id="le1W6F8i_ccFlPAa-Frw-98" value="CONTINUAR" style="whiteSpace=wrap;html=1;" parent="le1W6F8i_ccFlPAa-Frw-86" vertex="1">
          <mxGeometry x="420" y="140" width="110" height="20" as="geometry" />
        </mxCell>
        <mxCell id="le1W6F8i_ccFlPAa-Frw-101" value="" style="rounded=0;whiteSpace=wrap;html=1;" parent="le1W6F8i_ccFlPAa-Frw-86" vertex="1">
          <mxGeometry x="80" y="70" width="120" height="10" as="geometry" />
        </mxCell>
        <mxCell id="le1W6F8i_ccFlPAa-Frw-102" value="" style="rounded=0;whiteSpace=wrap;html=1;" parent="le1W6F8i_ccFlPAa-Frw-86" vertex="1">
          <mxGeometry x="240" y="70" width="120" height="10" as="geometry" />
        </mxCell>
        <mxCell id="le1W6F8i_ccFlPAa-Frw-103" value="" style="rounded=0;whiteSpace=wrap;html=1;" parent="le1W6F8i_ccFlPAa-Frw-86" vertex="1">
          <mxGeometry x="410" y="70" width="120" height="10" as="geometry" />
        </mxCell>
        <mxCell id="le1W6F8i_ccFlPAa-Frw-99" style="edgeStyle=orthogonalEdgeStyle;rounded=0;orthogonalLoop=1;jettySize=auto;html=1;entryX=0;entryY=0.75;entryDx=0;entryDy=0;" parent="le1W6F8i_ccFlPAa-Frw-1" source="le1W6F8i_ccFlPAa-Frw-97" target="le1W6F8i_ccFlPAa-Frw-43" edge="1">
          <mxGeometry relative="1" as="geometry">
            <mxPoint x="260" y="138" as="targetPoint" />
            <Array as="points">
              <mxPoint x="220" y="830" />
              <mxPoint x="220" y="230" />
            </Array>
          </mxGeometry>
        </mxCell>
      </root>
    </mxGraphModel>
  </diagram>
</mxfile>
